<svg xmlns="http://www.w3.org/2000/svg" width="20.569" height="20.571" viewBox="0 0 20.569 20.571">
  <path id="Path_8" data-name="Path 8" d="M1012.64,2.143H994.349a1.137,1.137,0,0,0-1.138,1.138V21.576a1.137,1.137,0,0,0,1.138,1.138h9.841V14.745h-2.68V11.638h2.68V9.348a3.752,3.752,0,0,1,4.01-4.1,21.342,21.342,0,0,1,2.38.121V8.143l-1.63.013c-1.3,0-1.54.6-1.54,1.5v1.982h3.06l-.4,3.107h-2.66v7.969h5.23a1.138,1.138,0,0,0,1.14-1.138V3.281A1.138,1.138,0,0,0,1012.64,2.143Z" transform="translate(-993.211 -2.143)" fill="#c0d6e5"/>
</svg>
