<svg xmlns="http://www.w3.org/2000/svg" width="20.573" height="20.573" viewBox="0 0 20.573 20.573">
  <path id="Path_9" data-name="Path 9" d="M1051.93,12.429A3.43,3.43,0,1,1,1048.5,9,3.435,3.435,0,0,1,1051.93,12.429Zm1.84,0a5.275,5.275,0,1,0-5.27,5.277A5.264,5.264,0,0,0,1053.77,12.429Zm1.45-5.491a1.23,1.23,0,1,0-1.23,1.232A1.229,1.229,0,0,0,1055.22,6.937Zm-6.72-2.946c1.5,0,4.71-.121,6.06.415a3.269,3.269,0,0,1,1.18.777,3.353,3.353,0,0,1,.78,1.179c.53,1.353.41,4.567.41,6.067s.12,4.714-.41,6.067a3.354,3.354,0,0,1-.78,1.179,3.269,3.269,0,0,1-1.18.777c-1.35.536-4.56.415-6.06.415s-4.72.121-6.07-.415a3.269,3.269,0,0,1-1.18-.777,3.354,3.354,0,0,1-.78-1.179c-.53-1.353-.41-4.567-.41-6.067s-.12-4.714.41-6.067a3.353,3.353,0,0,1,.78-1.179,3.269,3.269,0,0,1,1.18-.777C1043.78,3.87,1047,3.991,1048.5,3.991Zm10.28,8.437c0-1.42.02-2.826-.06-4.246a6.1,6.1,0,0,0-1.67-4.312,6.1,6.1,0,0,0-4.31-1.661c-1.42-.08-2.82-.067-4.24-.067s-2.83-.013-4.25.067a6.1,6.1,0,0,0-4.31,1.661,6.094,6.094,0,0,0-1.66,4.312c-.08,1.42-.07,2.826-.07,4.246s-.01,2.826.07,4.246a6.094,6.094,0,0,0,1.66,4.313,6.1,6.1,0,0,0,4.31,1.661c1.42.08,2.83.067,4.25.067s2.82.013,4.24-.067a6.1,6.1,0,0,0,4.31-1.661,6.1,6.1,0,0,0,1.67-4.312C1058.8,15.254,1058.78,13.848,1058.78,12.429Z" transform="translate(-1038.21 -2.142)" fill="#c0d6e5"/>
</svg>
