<?xml version="1.0" encoding="UTF-8"?>
<svg width="1056px" height="701px" viewBox="0 0 1056 701" version="1.1" xmlns="http://www.w3.org/2000/svg" xmlns:xlink="http://www.w3.org/1999/xlink">
    <!-- Generator: Sketch 54.1 (76490) - https://sketchapp.com -->
    <title>Combined Shape</title>
    <desc>Created with Sketch.</desc>
    <g id="All-pages" stroke="none" stroke-width="1" fill="none" fill-rule="evenodd" stroke-linecap="round" stroke-linejoin="round">
        <g id="Artboard" transform="translate(-537.000000, -207.000000)" stroke="#D88B6C">
            <path d="M1031.63705,322.552639 C1027.52535,341.35879 1026.27421,363.55568 1028.44973,379.103715 C1030.27627,392.151782 1034.76417,401.427554 1041.79089,406.672879 C1044.94166,409.026042 1048.13829,410.269289 1051.03468,410.269289 C1053.96188,410.269289 1056.47132,408.970723 1058.29069,406.512598 C1062.27842,401.12543 1063.44787,389.963156 1061.27021,378.073941 C1060.40315,373.340666 1058.97932,368.418031 1057.47237,363.20533 C1055.15497,355.194081 1052.52945,346.11476 1051.17441,335.185107 C1050.23928,327.646902 1049.89604,319.146298 1049.59437,311.64639 C1049.15726,300.796169 1048.81258,292.226062 1046.92585,290.122542 C1046.58046,289.73815 1046.17488,289.543116 1045.71986,289.543116 C1041.61389,289.543116 1035.12246,306.610991 1031.63705,322.552639 Z M938.850864,706.053963 C935.742302,723.377745 931.25623,736.441755 928.41426,736.441755 C927.955089,736.441755 927.508853,736.027194 927.087768,735.20949 C924.771796,730.709259 923.777286,714.403685 922.609599,698.636111 C922.118093,691.997434 921.610059,685.132567 921.021545,679.173169 C919.577206,664.537253 917.581719,654.634178 915.978575,646.676898 C915.364192,643.629414 914.784301,640.750323 914.310759,637.982542 C912.265691,626.044481 912.590487,618.264156 915.332575,613.495639 C917.200874,610.244085 920.263447,608.302572 923.523628,608.302572 C925.973255,608.302572 928.384079,609.402121 930.49382,611.481345 C936.200754,617.103244 940.402271,630.597512 941.966612,647.576659 C943.548917,664.758448 942.338834,686.619562 938.850864,706.053963 Z M711.672796,551.605228 C709.773607,559.576997 707.411456,569.497007 706.79603,579.270399 C706.322625,586.785146 706.868433,594.408606 707.267346,599.975112 C707.565313,604.142661 707.800623,607.435504 707.482467,608.7987 C707.393355,609.185631 707.265258,609.361573 707.185196,609.361573 C706.335852,609.361573 703.36106,604.30573 701.029541,591.790925 C698.349931,577.402977 697.217936,556.497288 698.45227,544.195617 C699.486102,533.895113 702.304253,527.297985 706.829447,524.587326 C707.944037,523.920032 709.000843,523.582451 709.974804,523.582451 C711.644948,523.582451 712.989279,524.578743 713.860205,526.462615 C715.368834,529.720412 715.242129,535.221834 713.464772,543.775072 C712.973267,546.143143 712.340436,548.796585 711.672796,551.605228 Z M1549.00565,706.053963 C1545.89709,723.377745 1541.41031,736.441755 1538.56834,736.441755 C1538.10917,736.441755 1537.66294,736.027194 1537.24257,735.20949 C1534.92589,730.709259 1533.9321,714.403685 1532.76441,698.636111 C1532.27291,691.997434 1531.76487,685.132567 1531.17636,679.173169 C1529.73202,664.537253 1527.73582,654.634178 1526.13268,646.676898 C1525.51902,643.629414 1524.93913,640.750323 1524.46559,637.982542 C1522.42052,626.044481 1522.74532,618.264156 1525.48668,613.495639 C1527.35498,610.244085 1530.41826,608.302572 1533.67772,608.302572 C1536.12734,608.302572 1538.53888,609.402121 1540.64862,611.481345 C1546.35554,617.103244 1550.55633,630.597512 1552.12139,647.576659 C1553.70369,664.758448 1552.49361,686.619562 1549.00565,706.053963 Z M1321.82716,551.605228 C1319.92797,559.576997 1317.56652,569.497007 1316.95109,579.270399 C1316.47769,586.785146 1317.0235,594.408606 1317.42241,599.975112 C1317.72038,604.142661 1317.95569,607.435504 1317.63753,608.7987 C1317.54842,609.185631 1317.41962,609.361573 1317.33956,609.361573 C1316.49022,609.361573 1313.51543,604.30573 1311.18461,591.790925 C1308.50501,577.402977 1307.37232,556.497288 1308.60734,544.195617 C1309.64048,533.895113 1312.45863,527.297985 1316.98451,524.587326 C1318.0984,523.920032 1319.1559,523.582451 1320.12917,523.582451 C1321.80001,523.582451 1323.14434,524.578743 1324.01526,526.462615 C1325.52319,529.720412 1325.39718,535.221834 1323.61983,543.775072 C1323.12763,546.143143 1322.49549,548.796585 1321.82716,551.605228 Z M1253.06486,208 C1253.054,208.141495 1253.04531,208.282989 1253.03445,208.425195 C1251.53147,228.92841 1249.44278,254.909387 1245.44931,273.991256 C1243.9065,281.364621 1242.10379,287.741123 1240.36117,293.907873 C1237.83158,302.85972 1235.44171,311.31527 1234.06398,321.906749 C1232.51828,333.7859 1232.5914,348.036331 1232.3257,363.122931 C1232.19321,370.61646 1232.05638,378.363114 1231.74724,385.796916 C1231.28679,396.839898 1230.44842,407.296281 1229.63756,417.408527 C1228.83828,427.371457 1228.08389,436.781207 1227.78055,445.720967 C1227.19557,462.964116 1228.12154,478.093379 1229.48987,497.247061 L1229.65928,499.618341 C1229.97276,504.02885 1230.29783,508.634892 1230.63158,513.381718 C1231.79502,529.906018 1233.19375,548.635216 1234.61927,566.533223 C1235.16515,573.378294 1235.72914,580.134485 1236.29167,586.880723 C1237.59339,602.486374 1239.01456,618.623163 1240.08533,635.454627 C1240.40895,640.522127 1240.7123,645.759562 1241.00768,650.824217 C1242.09944,669.617409 1242.83501,689.049815 1245.0779,702.737111 C1246.38324,710.70845 1248.0665,716.832538 1249.69328,722.755405 C1251.59808,729.691487 1253.39789,736.242191 1254.33472,744.905361 C1256.10051,761.23555 1254.65328,785.549877 1253.06559,807.266817 L1253.06486,807.266817 C1253.054,807.408312 1253.04531,807.549807 1253.03445,807.692012 C1251.53147,828.195227 1249.44278,854.176916 1245.44931,873.258074 C1243.9065,880.631438 1242.10379,887.00723 1240.36117,893.173979 M1270.09488,208 C1270.08261,208.143676 1270.07179,208.28664 1270.05952,208.429604 C1268.49006,226.6892 1265.3194,253.025921 1261.20561,274.806279 C1259.6044,283.284558 1257.85094,290.737193 1256.15593,297.94373 C1254.05682,306.865127 1252.07461,315.290773 1250.46258,325.152462 C1247.68013,342.180858 1246.36756,363.102719 1244.82336,383.335364 L1244.34061,389.642151 C1242.80002,409.706226 1241.04078,428.657883 1241.42683,445.780877 C1241.65702,455.971882 1242.53447,465.47296 1243.46244,475.53167 C1244.16743,483.170657 1244.89696,491.069255 1245.3797,499.720371 C1245.85667,508.268354 1246.0883,517.367568 1246.33292,527.001653 C1246.65403,539.612381 1247.36119,552.652003 1248.28915,564.655312 C1249.11249,575.309351 1250.38032,584.981844 1251.72176,595.222637 C1252.98093,604.838229 1254.28412,614.781003 1255.18178,625.598633 C1255.86224,633.795962 1256.32478,642.696022 1256.77216,651.301617 C1257.5255,665.790797 1258.14318,680.772883 1259.98396,692.914889 C1261.39683,702.230327 1263.4512,710.048552 1265.43701,717.61001 C1267.61549,725.901227 1269.67203,733.732966 1270.83162,743.0797 C1273.20204,762.194236 1271.80865,787.467616 1270.09632,807.466255 L1270.09488,807.466255 C1270.08261,807.60993 1270.07179,807.752895 1270.05952,807.895859 C1268.49006,826.154743 1265.3194,852.492176 1261.20561,874.272534 C1259.6044,882.750813 1257.85094,890.202736 1256.15593,897.409985 M1283.44501,208 C1283.379,208.840426 1283.31157,209.678717 1283.24911,210.525547 C1282.62876,218.88782 1282.15321,227.738265 1281.69256,236.297657 C1280.94586,250.197062 1280.16013,263.326492 1278.88039,274.813498 C1277.48708,287.315277 1275.44291,297.475819 1273.27736,308.2327 C1272.19352,313.616834 1271.07348,319.183143 1270.00383,325.216988 C1266.69908,343.855085 1264.07997,366.284706 1262.63556,386.756654 C1261.14644,407.849848 1260.4402,428.131792 1260.4402,446.907233 C1260.4402,466.742279 1260.72411,484.78119 1261.20038,503.676895 C1261.78524,526.890012 1263.11964,547.534172 1264.25458,565.037944 C1265.48251,583.979904 1266.79632,602.030913 1269.55099,625.395605 C1271.27505,640.024423 1274.98226,668.449461 1279.20405,694.452848 C1279.89396,698.701233 1280.58884,702.795907 1281.26101,706.756084 C1284.01071,722.961857 1286.45592,736.958043 1286.85694,751.579033 C1287.21184,764.546924 1286.07263,778.020779 1284.77941,792.285958 C1284.32514,797.297914 1283.86095,802.465714 1283.44572,807.7673 C1283.379,808.608437 1283.31157,809.445305 1283.24911,810.292847 C1282.62876,818.655119 1282.15321,827.505565 1281.69256,836.065668 C1280.94586,849.965074 1280.16013,863.09308 1278.88039,874.581509 C1277.48708,887.082577 1275.44291,897.243119 1273.27736,908 M1298.2285,208 C1298.21378,208.405618 1298.19836,208.806255 1298.18364,209.213297 C1298.0778,212.071126 1297.97546,214.956708 1297.87242,217.865062 C1297.29272,234.176607 1296.94084,251.043208 1295.77094,268.000896 C1294.48678,286.632292 1292.45539,306.258521 1289.56463,327.999657 C1288.82512,333.55378 1288.03584,339.1997 1287.27249,344.659891 C1285.28807,358.853682 1283.19641,373.530656 1281.84565,387.961414 C1280.40728,403.330786 1279.88156,418.498772 1279.23177,433.167919 C1279.03971,437.509457 1278.85045,441.76916 1278.64577,445.922121 C1278.35347,451.860514 1278.03103,457.556247 1277.7177,463.064827 C1277.09665,474.022212 1276.50924,484.371169 1276.36695,493.43638 C1276.23867,501.597846 1276.46508,508.912494 1276.68448,515.98733 C1276.83238,520.770066 1276.97188,525.287372 1277.01113,530.048761 C1277.03496,532.938613 1277.02094,535.832023 1277.00552,538.896219 C1276.95716,548.608285 1276.90809,558.651961 1278.03874,570.363653 C1279.36355,584.079241 1282.07907,599.472096 1285.13036,615.768697 C1285.50467,617.765478 1285.87898,619.765104 1286.25119,621.765442 C1289.40692,638.726688 1292.6068,657.190856 1295.03283,679.970944 C1297.34389,701.667248 1299.14887,728.060896 1299.55262,750.57413 C1299.90871,770.449422 1299.02129,786.528271 1298.38482,803.550715 L1298.2285,807.757758 C1298.21378,808.163377 1298.19836,808.564014 1298.18364,808.971055 C1298.0778,811.828884 1297.97546,814.713755 1297.87242,817.62282 C1297.29272,833.934365 1296.94084,850.800967 1295.77094,867.757943 M1320.89664,867.757943 C1321.02791,854.527066 1320.8482,840.995811 1320.89102,827.911564 C1320.91279,821.249859 1320.93525,814.581747 1320.96824,807.91506 L1320.96824,807.912924 C1321.07284,786.52201 1321.31292,767.247268 1323.59511,747.963984 C1324.70146,738.613111 1326.31043,729.10066 1327.86605,719.901399 C1329.63579,709.436565 1331.46659,698.615831 1332.56873,687.967353 C1334.69367,667.437713 1334.48377,646.975693 1333.63857,627.921608 C1333.49606,624.705711 1333.34162,621.490525 1333.18648,618.289575 C1332.36585,601.326748 1331.66104,585.305629 1332.8046,571.522398 C1333.48132,563.368055 1334.80599,556.238699 1336.08713,549.342813 C1337.3416,542.591421 1338.52656,536.213723 1338.77577,530.149215 C1339.28332,517.797407 1336.01974,506.762423 1332.53292,502.246785 C1328.97802,497.64146 1324.90925,499.36472 1320.19886,501.36131 L1319.57619,501.623963 C1314.33508,503.83338 1308.49729,505.928197 1305.57277,502.808393 C1302.51628,499.548364 1302.40256,490.210303 1303.30322,470.51133 C1303.76934,460.326231 1305.61068,424.668064 1309.19577,393.463609 C1310.70717,380.311742 1311.9146,368.75857 1313.59869,357.585497 C1315.17818,347.105003 1316.67062,337.206046 1317.73345,327.420977 C1319.93842,307.097758 1320.7071,286.845007 1320.89664,267.843595 C1321.02791,254.612718 1320.8482,241.082175 1320.89102,227.997216 C1320.91279,221.335511 1320.93525,214.668111 1320.96824,208 M1576.11619,870.934947 C1576.05823,857.131825 1576.45563,844.323132 1576.93236,833.022097 C1577.24765,825.535055 1577.54501,818.463011 1577.62297,812.146931 C1577.64022,810.710455 1577.64298,809.316689 1577.63884,807.943567 L1577.64436,807.943567 C1577.6416,804.821474 1577.59951,801.847443 1577.55812,798.945307 C1577.41323,788.942652 1577.28836,780.303867 1578.78203,769.797948 C1579.76517,762.878236 1581.44512,755.263064 1583.22443,747.20015 C1585.3066,737.760554 1587.45915,728.000635 1588.76379,718.200141 C1590.98602,701.510543 1590.85977,685.336311 1590.57483,669.693817 C1590.5493,668.284391 1590.52378,666.884218 1590.50101,665.495435 C1590.20572,647.917472 1590.03255,633.348419 1590.48721,620.955436 C1590.65555,616.359852 1590.88322,611.900941 1591.104,607.587243 C1591.5145,599.529312 1591.94018,591.196614 1591.994,581.711461 C1592.04643,572.425621 1591.74769,561.835706 1591.40135,549.572987 C1591.20956,542.747948 1590.99154,535.011765 1590.8163,526.760928 C1590.72247,522.335472 1590.63899,517.714975 1590.55275,512.914384 C1590.19055,492.772404 1590.08706,469.942549 1588.60304,444.954421 C1587.25632,422.29327 1584.76916,398.201338 1582.6311,374.901674 C1581.83493,366.223026 1581.08292,358.024864 1580.3792,349.953409 C1577.34079,315.13489 1576.20312,291.519885 1576.11619,270.992092 C1576.05823,257.188258 1576.45563,244.379565 1576.93236,233.07853 C1577.24765,225.591488 1577.54501,218.519444 1577.62297,212.203364 C1577.64022,210.766888 1577.64298,209.373123 1577.63884,208 M1513.38873,905.881997 C1512.72831,893.273633 1512.10526,881.364193 1511.36579,870.208426 C1510.41432,855.879414 1509.37518,842.464053 1508.34467,830.627136 C1507.72306,823.490004 1507.13665,816.748906 1506.6487,810.429437 C1506.57109,809.429756 1506.49707,808.44145 1506.42449,807.460965 C1505.9775,801.454341 1505.61532,795.832375 1505.26175,790.371808 C1504.70481,781.737997 1504.17806,773.58412 1503.41775,765.47859 C1502.88452,759.803298 1502.2471,754.226125 1501.57231,748.321176 C1500.59928,739.821036 1499.59464,731.030803 1498.87601,721.540223 C1498.00503,710.05668 1497.49121,697.471779 1497.05069,685.301398 C1496.88109,680.619389 1496.70575,675.778824 1496.51244,671.161516 C1496.42836,669.177083 1496.34068,667.216114 1496.25301,665.263677 C1495.60984,650.851477 1495.16429,637.239166 1496.31625,618.200415 C1497.67949,595.703306 1501.15622,567.970309 1507.34362,557.599498 C1510.02339,553.10875 1513.17889,551.883678 1516.22947,550.699133 C1520.29189,549.120688 1524.13009,547.631119 1525.94606,538.766941 C1529.18421,522.950494 1526.291,482.295577 1523.72622,449.628873 C1523.17359,442.589861 1522.62168,435.618395 1522.07481,428.73225 L1516.15258,349.408983 C1515.17165,334.091666 1514.09586,320.130958 1513.38873,306.629564 C1512.72831,294.0212 1512.10526,282.111761 1511.36579,270.955993 C1510.41432,256.626982 1509.37518,243.21162 1508.34467,231.374703 C1507.72306,224.237572 1507.13665,217.496473 1506.6487,211.177005 M1558.75838,870.934947 C1558.47506,858.130502 1558.60371,846.119228 1558.71791,835.521589 C1558.80825,827.134308 1558.89282,819.212553 1558.75838,812.233221 C1558.73092,810.802529 1558.69044,809.415191 1558.64563,808.047754 L1558.65069,808.047754 C1558.58348,805.893543 1558.50614,803.802586 1558.42736,801.762091 C1558.01033,790.841782 1557.64967,781.410444 1559.66617,769.970594 C1560.96641,762.593966 1563.24599,754.421324 1565.65928,745.771786 C1568.1405,736.874203 1570.70774,727.673852 1572.45826,718.459996 C1575.91521,700.259007 1576.5086,682.404142 1576.21588,665.820055 C1576.14649,661.817955 1576.04603,657.889771 1575.94918,654.090939 C1575.65068,642.376749 1575.36808,631.312873 1576.05904,621.361283 C1576.39223,616.550377 1576.96249,611.88517 1577.51323,607.372058 C1578.47305,599.51569 1579.4654,591.392799 1579.26158,582.156911 C1579.09679,574.643113 1578.1601,566.420721 1577.07668,556.89841 C1576.08361,548.175667 1574.95828,538.288753 1574.27094,527.286711 C1573.55035,515.740962 1572.8977,502.711217 1572.62955,488.917442 C1572.36141,475.130063 1572.52692,460.872183 1571.7767,445.627104 C1570.57692,421.248483 1568.16002,395.368807 1565.87466,370.33987 C1565.2661,363.681076 1564.66838,357.135287 1564.10752,350.769311 C1561.12469,316.931633 1559.21517,292.614134 1558.75838,271.923471 C1558.47506,259.119026 1558.60371,247.107041 1558.71791,236.509402 C1558.80825,228.122121 1558.89282,220.200366 1558.75838,213.221034 C1558.73815,212.166316 1558.7114,211.135052 1558.68033,210.118003 M1541.88668,870.934947 C1541.88668,861.399631 1542.12451,852.534121 1542.35376,843.960451 C1542.67872,831.84556 1542.9594,821.383476 1542.48875,812.124339 C1542.4159,810.695038 1542.31948,809.309869 1542.21164,807.943919 L1542.22164,807.943919 C1541.95739,804.441135 1541.61172,801.126979 1541.27319,797.895392 C1540.30475,788.653339 1539.39058,779.923784 1540.88038,769.799806 C1542.13522,761.27525 1545.06555,751.69509 1548.16943,741.551894 C1550.4977,733.940582 1552.90596,726.070173 1554.72001,718.236067 C1558.4688,702.04539 1560.50497,684.301559 1559.83434,665.495005 C1559.61651,659.39058 1559.183,653.534575 1558.76377,647.872892 C1558.066,638.451464 1557.4068,629.553212 1557.97387,621.775338 C1558.39739,615.962041 1559.51867,610.612839 1560.60424,605.440165 C1561.8248,599.619038 1563.08749,593.60003 1563.34603,586.932569 C1563.63313,579.525544 1562.71325,571.267915 1561.54983,560.812948 C1560.73851,553.523371 1559.81791,545.260759 1559.11658,535.553187 C1558.27454,523.908797 1557.66605,510.04287 1557.1047,495.361928 C1556.50906,479.784826 1555.99056,463.678142 1554.92355,446.96856 C1553.52802,425.101253 1550.96621,402.93997 1548.90505,381.508998 C1547.8459,370.495267 1546.84532,360.092974 1545.96544,349.972555 C1543.2665,318.926545 1541.88668,293.099476 1541.88668,271.015068 C1541.88668,261.480464 1542.12451,252.614242 1542.35376,244.040572 C1542.67872,231.926393 1542.9594,221.463597 1542.48875,212.20446 C1542.43447,211.135332 1542.36662,210.089693 1542.2902,209.059002 M1497.54728,889.996974 C1497.13956,883.219597 1496.7464,876.688282 1496.35325,870.383116 C1494.80318,845.504523 1493.39,826.796685 1491.22108,810.420749 C1491.08857,809.427255 1490.95388,808.445851 1490.817,807.470848 C1490.1246,802.536092 1489.37906,797.856644 1488.65317,793.310183 C1487.10821,783.633396 1485.64916,774.492826 1485.18902,765.4952 C1484.75145,756.939916 1485.20066,748.285782 1485.67609,739.123166 C1485.98188,733.23403 1486.29787,727.145058 1486.41654,720.566095 C1486.62186,709.195319 1486.60948,696.712286 1486.20467,683.496756 C1486.00955,677.14892 1485.8086,670.586314 1485.67755,664.156695 C1485.24289,642.673191 1485.66809,624.08554 1486.98371,603.885684 C1487.81371,591.155166 1489.98627,559.776549 1494.552,543.382834 C1496.26369,537.236257 1498.204,533.499099 1500.08097,529.884261 C1502.32342,525.565372 1504.44138,521.486144 1505.89533,513.839015 C1508.39626,500.686778 1508.9343,475.824542 1507.62377,443.832191 C1506.6882,420.970454 1504.83381,395.988031 1503.02237,371.827001 C1502.46394,364.370463 1501.91352,357.031979 1501.40387,349.918222 C1499.8458,328.175143 1498.60662,308.222061 1497.54728,290.617236 C1497.13956,283.839859 1496.7464,277.309255 1496.35325,271.003378 C1494.80318,246.125496 1493.39,227.416236 1491.22108,211.041011 C1491.13225,210.376074 1491.04197,209.715404 1490.95169,209.059002 M1482.58872,896.350983 C1481.604,887.266005 1480.67327,878.685511 1479.98584,870.454384 C1479.04359,859.188527 1478.57211,848.83131 1478.11646,838.814211 C1477.65577,828.701053 1477.22172,819.14788 1476.34425,810.478443 C1476.2442,809.48086 1476.1355,808.495373 1476.02321,807.51629 L1476.02465,807.51629 C1475.26956,800.912461 1474.28772,794.779674 1473.33467,788.82335 C1472.04115,780.746627 1470.81889,773.118177 1470.3798,765.516054 C1469.81617,755.754399 1470.55111,745.762203 1471.32924,735.182985 C1471.6726,730.516688 1472.02747,725.691005 1472.30172,720.577858 C1473.01939,707.180219 1473.21878,691.680683 1473.35555,678.006253 C1473.39298,674.264961 1473.42897,670.621151 1473.47504,667.135303 C1473.53622,662.530909 1473.61396,658.204729 1473.6881,654.096993 C1473.87886,643.539833 1474.04298,634.422123 1473.82415,625.779013 C1473.76656,623.497095 1473.68019,621.20237 1473.59741,618.982356 C1473.23605,609.34949 1472.86175,599.388603 1474.48423,585.212536 C1475.36673,577.500124 1476.85389,568.448588 1478.42958,558.86553 C1480.41197,546.804168 1482.98534,533.133297 1484.40124,519.696523 C1486.56359,499.172783 1486.6766,478.710947 1487.03939,455.017995 C1487.10129,451.008452 1487.1632,446.908542 1487.2359,442.704036 C1487.3122,438.42126 1487.39714,434.028906 1487.48496,429.556148 C1487.98092,404.122052 1488.75257,375.293184 1487.54686,349.727452 C1486.63773,330.473104 1484.30838,312.504514 1482.58872,296.651341 C1481.604,287.565651 1480.67327,278.984445 1479.98584,270.754742 C1479.04359,259.488885 1478.57211,249.130245 1478.11646,239.113857 C1477.65577,228.999988 1477.22172,219.448238 1476.34425,210.778089 C1476.28667,210.201739 1476.22548,209.628947 1476.16286,209.059002 M1467.0531,891.055976 C1466.49676,883.758962 1465.97144,876.867101 1465.5385,870.167865 C1464.96561,861.298574 1464.56783,852.960958 1464.18246,844.898418 C1463.58751,832.439617 1463.02566,820.672418 1461.92745,810.246488 C1461.82266,809.250665 1461.71236,808.266926 1461.59861,807.290294 C1460.92645,801.539258 1460.11503,796.140065 1459.3243,790.897957 C1457.98825,782.024402 1456.72528,773.642716 1456.46469,765.343482 C1456.1524,755.434299 1457.22647,745.739776 1458.47152,734.514203 C1458.96926,730.018429 1459.48424,725.370545 1459.93441,720.458246 C1461.55863,702.694787 1462.24595,681.477578 1462.65545,667.063382 C1463.15044,649.589216 1462.99394,637.223528 1462.13979,625.72572 C1461.91987,622.776635 1461.63101,619.839633 1461.35181,616.998588 C1460.50041,608.334006 1459.61936,599.375155 1460.64794,589.211508 C1461.19118,583.844301 1462.24802,578.162212 1463.47238,571.581678 C1465.33789,561.553082 1467.55153,550.18606 1468.65594,535.739167 C1469.96372,518.650252 1470.09953,497.374758 1469.93684,474.848977 C1469.87065,465.740149 1469.80309,456.320703 1469.82791,446.851502 C1469.861,434.527751 1469.57008,421.916129 1469.75759,409.71961 C1470.08092,388.649536 1470.40838,368.746586 1469.96648,349.991569 C1469.46598,328.768674 1468.36846,309.226807 1467.0531,291.987204 C1466.49676,284.689479 1465.97144,277.797618 1465.5385,271.099093 C1464.96561,262.229091 1464.56783,253.891475 1464.18246,245.828935 C1463.58751,233.370134 1463.02566,221.603645 1461.92745,211.177005 M1454.14785,876.229955 L1453.72961,870.619137 C1453.31635,865.033923 1452.92941,859.624381 1452.55598,854.406868 C1451.38022,837.967008 1450.15324,823.768915 1448.87291,811.664655 C1448.72994,810.31547 1448.58342,809.003979 1448.43405,807.706713 L1448.4376,807.706713 C1448.04853,804.297123 1447.64878,801.061781 1447.25828,797.904674 C1446.03201,787.982438 1444.97148,779.412943 1444.78512,769.735367 C1444.56604,758.417717 1445.7034,745.501954 1446.78598,731.828742 C1447.04561,728.562818 1447.31021,725.22506 1447.56627,721.81547 C1448.71572,706.475157 1450.02805,689.688222 1450.88942,674.877057 L1451.43712,665.49037 C1452.35468,649.896151 1452.61644,637.577814 1451.82335,626.03684 C1451.56586,622.278752 1451.1398,618.546267 1450.72654,614.93469 C1449.81893,606.979689 1448.87931,598.753714 1449.62759,589.487935 C1450.0501,584.258331 1450.99185,578.740683 1452.08226,572.35179 C1453.81639,562.196274 1455.91256,550.684461 1456.56055,535.981401 C1457.16373,522.265516 1456.87494,505.780849 1456.26465,488.3275 C1455.79734,474.977893 1454.94734,461.173816 1454.90893,447.04969 C1454.86341,429.459076 1455.71127,411.52352 1456.34361,394.178988 C1456.90766,378.722035 1457.41552,364.123525 1457.46531,350.143776 C1457.56632,322.571895 1455.7511,298.25598 1454.14785,276.802017 L1453.72961,271.191199 C1453.31635,265.604563 1452.92941,260.196443 1452.55598,254.978219 C1451.38022,238.53907 1450.15324,224.340266 1448.87291,212.236006 M1439.04108,884.701967 C1438.85887,880.027385 1438.68141,875.472209 1438.52367,871.030042 C1438.29522,864.571486 1438.11233,858.380171 1437.93488,852.39213 C1437.47866,836.971768 1437.55685,823.653795 1436.59886,812.306723 C1436.4792,810.884519 1436.3473,809.50496 1436.21064,808.145301 L1436.21676,808.145301 C1435.83125,804.263913 1435.39883,800.626311 1434.97593,797.079685 C1433.93568,788.348872 1432.95321,780.101366 1433.12523,771.011626 C1433.27413,763.178486 1434.27359,754.507375 1435.33152,745.328792 C1436.17324,738.029423 1437.04352,730.480581 1437.60308,722.509556 C1438.46724,710.199423 1438.1912,697.275203 1438.28843,684.776722 C1438.33466,678.839854 1438.37749,673.232773 1438.5026,667.925627 C1438.6379,662.172843 1438.86498,656.927531 1439.08391,651.855643 C1439.48982,642.490133 1439.84065,634.401834 1439.45174,626.601389 C1439.24437,622.43428 1438.81739,618.297024 1438.40401,614.29623 C1437.6194,606.71043 1436.80895,598.866629 1437.37871,590.067584 C1437.70167,585.086671 1438.45024,579.869079 1439.31576,573.827731 C1440.80203,563.467176 1442.39845,551.724218 1442.61262,536.589576 C1442.79551,523.583621 1442.00954,508.074416 1441.02028,491.654034 C1440.16632,477.466107 1439.55509,462.795583 1439.22737,447.720644 C1438.77592,426.920641 1439.09479,405.799379 1439.70263,385.373939 C1440.06026,373.31612 1440.39953,361.926403 1440.51511,350.889217 C1440.76804,326.723827 1439.79305,304.914563 1439.04108,285.672516 C1438.85887,280.997934 1438.68141,276.442758 1438.52367,271.99988 C1438.29522,265.542035 1438.11233,259.35001 1437.93488,253.362679 C1437.47866,237.942317 1437.55685,224.624344 1436.59886,213.276562 C1436.50844,212.202623 1436.41121,211.153561 1436.3099,210.118003 M1415.83663,209.059002 C1415.83595,209.081765 1415.83595,209.103817 1415.83527,209.125869 C1415.78077,212.70113 1415.73037,216.319073 1415.67792,219.973295 C1415.45722,235.57185 1415.2842,251.702498 1414.74267,267.88792 C1414.40686,277.882434 1413.94503,288.043404 1413.4975,297.869327 C1413.05133,307.693117 1412.58814,317.851953 1412.25369,327.842199 C1411.77551,342.122616 1411.79117,356.644894 1411.56094,370.688431 C1411.46694,376.389216 1411.37294,382.090002 1411.26395,387.790787 L1411.1645,392.869138 C1410.80621,410.761808 1410.49423,429.264108 1411.89403,445.707039 C1412.67329,454.867136 1413.9784,463.364962 1415.23993,471.581093 C1416.42243,479.291451 1417.54091,486.574998 1418.0041,493.221883 C1418.67914,502.923319 1417.9646,511.485879 1417.27389,519.767454 C1416.99938,523.058886 1416.71533,526.461289 1416.52529,529.877919 C1415.91496,540.802883 1416.06823,552.336765 1416.42924,566.938715 L1416.53278,571.179092 C1416.9408,588.046701 1416.99121,608.081967 1417.27117,627.593677 C1417.50549,643.855213 1417.78,665.503117 1417.67442,688.754411 C1417.57769,710.225188 1417.68668,732.931585 1417.31476,752.310983 C1417.20714,757.964819 1417.09883,763.42659 1416.99257,768.77739 C1416.73032,781.956632 1416.05665,794.430924 1415.85434,807.461494 C1415.84821,807.865542 1415.8414,808.262477 1415.83527,808.667238 C1415.78077,812.241788 1415.73037,815.859731 1415.67792,819.513953 C1415.45722,835.112508 1415.2842,851.243155 1414.74267,867.427866 C1414.40686,877.423091 1413.94503,887.58335 1413.4975,897.409985 M1382.07969,210.118003 C1381.83607,215.221937 1381.62697,220.390568 1381.42338,225.400656 C1380.84368,239.686552 1380.45307,254.45874 1379.04108,268.993469 C1378.33509,276.261545 1377.41032,283.649061 1376.51523,290.794142 C1374.95004,303.283459 1373.45109,316.197926 1372.95835,328.891997 C1372.44144,342.191801 1372.85345,355.721243 1373.53046,368.805628 C1373.86931,375.354219 1374.21989,382.125338 1374.41519,388.787682 C1374.62223,395.944138 1374.65743,403.170978 1374.69055,410.16036 C1374.75197,423.018662 1374.70573,435.163878 1375.763,446.68772 C1376.72227,457.155797 1378.5435,467.155355 1380.14942,475.978286 C1381.324,482.423078 1382.43234,488.51026 1383.11418,494.158784 C1384.42058,504.973806 1384.17628,514.023531 1383.91886,523.603627 C1383.85468,525.983187 1383.7905,528.371991 1383.75116,530.797763 C1383.61797,539.019938 1383.77256,547.633138 1383.9513,557.607102 C1384.03204,562.143695 1384.11762,566.945474 1384.18318,572.096331 C1384.36813,586.673717 1384.8243,605.645507 1384.7125,628.481327 C1384.69663,631.829917 1384.678,635.178508 1384.65867,638.527098 C1384.5662,654.871915 1384.50961,671.774119 1384.75115,688.395496 C1384.83672,694.269393 1384.96716,700.242823 1385.09207,706.019318 C1385.39365,719.885041 1385.57723,734.222836 1385.30256,748.327439 C1385.04445,761.652837 1383.99133,775.197209 1383.22874,788.295813 C1382.84779,794.833029 1382.45373,801.592773 1382.13145,808.240897 L1382.13007,808.258671 C1381.86575,813.706706 1381.64077,819.245744 1381.42338,824.603488 C1380.84368,838.889384 1380.45307,853.662994 1379.04108,868.197013 C1378.33509,875.465799 1377.41032,882.852604 1376.51523,889.996974 M1369.35855,210.118003 L1369.13831,214.923178 C1368.331,232.60352 1367.49525,250.886641 1365.92732,268.872638 C1365.10251,278.335136 1364.05381,287.954015 1363.03793,297.256578 C1361.9112,307.589125 1360.74582,318.274242 1359.88382,328.780941 C1358.22691,348.95841 1357.55671,369.102471 1358.05845,388.652281 C1358.61124,410.190269 1360.81583,429.657624 1363.79492,446.512699 C1365.63415,456.920594 1367.96418,466.559376 1370.02073,475.062972 C1371.51137,481.227954 1372.79999,486.554163 1373.61313,490.988998 C1375.13586,499.291431 1374.93531,504.253698 1374.6312,511.764271 C1374.55025,513.787989 1374.4569,516.08182 1374.39054,518.655716 C1374.1455,528.243319 1374.20676,542.420007 1374.31688,557.42978 C1374.3446,561.209235 1374.37231,565.059772 1374.39565,568.932345 C1374.5116,587.889328 1374.52473,607.864212 1374.41898,628.301133 C1374.31834,648.139538 1374.05216,668.297104 1373.74586,688.214412 C1373.3732,712.401643 1372.99325,730.880241 1372.3741,748.130534 C1371.83516,763.118272 1370.81418,778.35551 1370.11481,793.090905 C1369.87852,798.070232 1369.64297,803.048848 1369.41252,808.027464 L1369.41179,808.043813 L1369.13831,814.017583 C1368.331,831.698636 1367.49525,849.982468 1365.92732,867.967754 C1365.10251,877.430252 1364.05381,887.049132 1363.03793,896.350983 M1352.48823,210.118003 C1351.83704,221.556439 1350.64145,233.144128 1349.48285,244.362949 C1348.65438,252.39274 1347.7973,260.696871 1347.15309,268.829007 C1346.42722,277.994539 1345.94563,287.290844 1345.4801,296.280116 C1344.93709,306.737749 1344.37664,317.550746 1343.42812,328.284141 C1342.68341,336.706253 1341.67976,345.315997 1340.70821,353.643582 C1339.37791,365.050035 1338.00225,376.843835 1337.28475,388.259528 C1336.02705,408.258667 1336.89181,427.365845 1339.29346,438.124826 C1341.03136,445.910127 1343.65356,449.470868 1346.43001,453.241273 C1347.5237,454.726692 1348.65508,456.262572 1349.74109,458.084165 C1353.36765,464.164432 1356.77505,473.877224 1358.85564,484.067624 C1360.80363,493.606998 1361.36199,502.545808 1361.75912,516.712014 C1362.03691,526.603198 1362.35378,546.549744 1361.91686,569.007287 C1361.69142,580.621273 1361.24124,592.665248 1360.80642,604.312638 C1360.51188,612.191044 1360.20827,620.338104 1359.97167,628.367184 C1359.80276,634.068634 1359.66457,639.866743 1359.53126,645.472955 C1359.19624,659.50199 1358.77957,674.008634 1357.93853,688.280027 C1357.44787,696.604769 1356.77645,705.06526 1356.12665,713.248568 C1355.21792,724.696954 1354.27778,736.534108 1353.82062,748.17439 C1353.46676,757.185694 1353.39208,766.351226 1353.31879,775.2147 C1353.22946,785.979367 1353.13872,797.109347 1352.54756,808.060936 L1352.54616,808.080125 C1351.91033,819.859 1350.67635,831.813423 1349.48285,843.375526 C1348.65438,851.405317 1347.7973,859.708737 1347.15309,867.840872 C1346.42722,877.007115 1345.94563,886.30271 1345.4801,895.291982 M1333.33045,883.642965 C1333.55372,878.34312 1333.78551,872.863244 1334.05713,867.462354 C1334.45318,859.603668 1334.9509,851.581318 1335.43299,843.823677 C1336.16962,831.968759 1336.50097,819.708952 1336.92403,807.633444 L1336.92545,807.620636 C1337.1345,801.624154 1337.26533,795.52805 1337.39189,789.631901 C1337.68697,775.880623 1338.02827,761.660414 1339.35649,747.682143 C1340.3043,737.695122 1341.80103,727.537321 1343.24871,717.713252 C1344.6978,707.880644 1346.19667,697.712881 1347.14661,687.708071 C1349.21644,665.906692 1349.14249,644.152988 1348.58077,629.685861 C1348.43288,625.881045 1348.26223,622.165176 1348.09585,618.515483 C1347.47724,605.003296 1346.96885,592.239691 1347.74317,579.289652 C1348.22454,571.232435 1349.23066,563.069193 1350.20265,555.174927 C1351.22299,546.899967 1352.18644,539.083976 1352.49219,531.941139 C1353.00484,519.972368 1351.67023,508.609152 1348.52673,498.167431 C1346.21373,490.48237 1343.18471,484.100923 1339.26761,478.657339 C1336.39644,474.668934 1332.48645,470.185982 1327.63576,470.915352 C1326.81166,471.039878 1325.97406,471.315259 1325.16419,471.580679 C1323.51032,472.122902 1321.94959,472.633817 1320.73016,471.830443 C1319.2832,470.875503 1318.37734,468.109593 1317.95996,463.376876 C1316.79031,450.098087 1319.01301,418.611397 1321.95955,393.297661 C1323.36171,381.254886 1324.87267,370.559843 1326.33456,360.217032 C1327.95572,348.747078 1329.48659,337.912566 1330.54959,327.271603 C1332.00508,312.713394 1332.73247,298.07193 1333.33045,283.911494 C1333.55372,278.611648 1333.78551,273.131061 1334.05713,267.730171 C1334.45318,259.872197 1334.9509,251.850559 1335.43299,244.092917 C1336.14616,232.615848 1336.47963,220.760218 1336.8835,209.059002 M1207.39416,900.586989 C1205.57062,894.750332 1203.68569,888.714666 1202.28681,879.946887 C1200.59102,869.31624 1199.38699,854.780746 1198.31927,839.390935 C1197.70262,830.4938 1197.06384,821.293176 1196.27875,812.878638 C1196.12174,811.19701 1195.95687,809.550208 1195.78772,807.919754 L1195.78986,807.919754 C1195.09827,801.20106 1194.33531,794.947194 1193.5909,788.867461 C1192.09995,776.688806 1190.81312,766.169746 1190.56546,755.596669 C1190.09869,735.607611 1193.8721,721.081357 1200.18278,715.742934 C1202.26112,713.986678 1204.74628,713.101797 1207.37775,712.165032 C1213.75551,709.894905 1220.98474,707.322 1223.86458,690.971258 C1227.87566,668.2046 1223.54412,618.069195 1220.46372,581.461444 L1220.44659,581.256748 C1217.3248,544.153606 1215.08373,520.195025 1213.59278,500.391472 C1212.13466,481.030715 1211.20326,464.770238 1211.91626,446.519669 C1212.21959,438.747647 1212.84124,430.60959 1213.5,421.994622 C1214.37716,410.515342 1215.11228,398.645861 1215.45415,385.612888 C1216.08365,361.599579 1214.91387,336.021204 1212.21103,320.44802 C1210.85426,312.63051 1209.09566,307.001391 1207.39416,301.557067 C1205.57062,295.72041 1203.68569,289.684744 1202.28681,280.916965 C1200.59102,270.286317 1199.38699,255.750113 1198.31927,240.361723 C1197.70262,231.463877 1197.06384,222.263253 1196.27875,213.848716 C1196.1617,212.58785 1196.03894,211.346885 1195.91404,210.118003 M1151.95975,887.878971 C1151.93876,881.228709 1151.91777,874.578446 1151.88661,867.928895 C1151.77893,845.541479 1151.64281,826.988128 1150.92222,809.205286 C1150.90529,808.80937 1150.88565,808.418429 1150.8694,808.022512 L1150.87075,808.022512 C1150.58225,801.157588 1150.21925,794.331757 1149.86438,787.719878 C1149.26502,776.540386 1148.64467,764.982036 1148.35346,752.499645 C1147.8313,730.166249 1148.34465,707.488826 1149.819,691.836969 C1150.54229,684.1532 1151.53038,677.556959 1152.48665,671.178223 C1153.66707,663.306092 1154.8861,655.165989 1155.62226,644.901299 C1156.93882,626.550527 1156.69027,601.543806 1156.39093,575.377767 C1156.13696,553.129668 1155.5796,527.469009 1154.4845,504.473857 C1154.08358,496.060095 1153.58377,487.924968 1153.10158,480.057813 C1152.31869,467.313846 1151.85275,455.277126 1151.61775,443.578038 C1151.36582,431.023855 1151.37936,419.179053 1151.72204,406.640508 C1151.89135,400.468615 1152.06608,394.087036 1152.16293,387.676313 C1152.38371,372.979774 1152.2381,357.363456 1152.06134,342.260338 C1152.00919,337.767359 1151.95705,333.262297 1151.91438,328.758656 C1151.78706,315.440361 1152.00174,301.898875 1151.95975,288.803061 C1151.93876,282.152798 1151.91777,275.503247 1151.88661,268.852273 C1151.77893,246.466279 1151.64281,227.912217 1150.92222,210.130087 C1150.92155,210.125822 1150.92155,210.122268 1150.92155,210.118003 M1139.75884,209.059002 C1139.86575,210.378312 1139.97193,211.672019 1140.07591,212.940834 C1141.0037,224.254191 1141.80555,234.024204 1141.79895,245.188917 C1141.79383,252.28617 1141.46577,260.036321 1141.11794,268.242364 C1140.77304,276.375862 1140.41642,284.786025 1140.30951,293.746671 C1140.19747,303.104177 1140.36223,312.977316 1140.52187,322.524718 C1140.67564,331.701574 1140.82063,340.369198 1140.7291,348.349073 C1140.64049,356.109181 1140.33147,362.936171 1140.03344,369.536993 C1139.7127,376.636379 1139.40881,383.34175 1139.49009,389.664485 C1139.53988,393.584723 1139.7398,397.485047 1139.93165,401.258063 C1140.33221,409.084315 1140.74594,417.177985 1139.90602,426.302211 C1139.52524,430.442927 1138.87791,434.870264 1138.1925,439.557196 C1136.57783,450.606692 1134.19647,463.130544 1134.39565,479.760973 C1134.53332,491.282718 1136.12748,504.800143 1137.33574,519.111288 C1138.68312,535.06037 1140.19967,551.553534 1140.59509,568.671149 C1141.15309,592.844765 1139.10931,617.23388 1137.68723,640.819319 C1137.16658,649.447825 1136.67596,657.596971 1136.29005,665.603161 C1135.0525,691.329368 1134.86211,716.399831 1135.69544,744.500798 C1136.29224,764.609087 1137.88275,784.367457 1139.34144,803.228269 C1139.45274,804.672754 1139.56478,806.071722 1139.67755,807.451486 L1139.67536,807.451486 C1139.81009,809.129963 1139.94483,810.769322 1140.07591,812.368142 C1141.0037,823.680788 1141.80555,833.451512 1141.79895,844.616225 C1141.79383,851.712767 1141.46577,859.464341 1141.11794,867.670383 C1140.77304,875.80317 1140.41642,884.213333 1140.30951,893.173979 M1107.10381,210.118003 C1107.87963,215.662025 1108.79827,220.888087 1109.69404,225.97402 C1111.20963,234.573158 1112.64063,242.695001 1113.05939,250.780567 C1113.51767,259.642182 1112.75919,268.604804 1111.95633,278.094514 C1111.48002,283.716781 1110.98846,289.530393 1110.69865,295.780044 C1110.12944,308.037497 1110.1953,321.637209 1110.40191,334.78879 C1110.48026,339.836311 1110.55583,344.603573 1110.58425,349.172376 C1110.65289,360.376366 1110.43242,370.100811 1110.2376,378.680743 C1110.144,382.79857 1110.05525,386.688064 1110.00187,390.509271 C1109.9783,392.154552 1109.96166,393.782762 1109.94571,395.401724 C1109.84033,405.718698 1109.74118,415.462349 1108.0384,427.16355 C1107.38668,431.64415 1106.4826,436.481832 1105.52652,441.60262 C1103.51243,452.386219 1101.20785,464.609529 1099.74495,480.646221 C1097.78564,502.130195 1097.5409,529.922149 1097.10897,559.345869 C1097.05905,562.729614 1097.00913,566.132566 1096.95644,569.546186 C1096.89751,573.375929 1096.83441,577.219898 1096.77271,581.070269 C1096.30125,610.024518 1095.85753,639.963234 1096.82263,666.447782 C1097.56448,686.826367 1099.15633,705.705491 1100.59288,722.362453 C1101.28758,730.413164 1101.94415,738.017878 1102.47246,745.370785 C1103.09991,754.095826 1103.5367,762.307296 1103.95962,770.247752 C1104.63075,782.861576 1105.26514,794.776173 1106.53668,805.303698 C1106.66009,806.327286 1106.79112,807.340916 1106.92701,808.345299 C1107.73819,814.369461 1108.73033,820.009511 1109.69404,825.485958 C1111.20963,834.085096 1112.64063,842.20765 1113.05939,850.292505 C1113.51767,859.153408 1112.75919,868.117453 1111.95633,877.606452 C1111.48002,883.22943 1110.98846,889.042331 1110.69865,895.291982 M1065.23293,208 C1065.15108,212.225618 1065.00219,216.272769 1064.85401,220.201179 C1064.46168,230.555827 1064.09194,240.335968 1065.2668,249.904223 C1066.10932,256.764187 1067.71108,263.494744 1069.40599,270.622053 C1071.1136,277.799133 1072.87978,285.221517 1073.82038,292.85152 C1074.86894,301.351816 1074.90845,310.017071 1074.94938,319.191419 C1074.98042,326.052093 1075.01218,333.145273 1075.49835,340.267604 C1076.0819,348.826916 1077.31816,357.482216 1078.51348,365.851685 C1079.61638,373.575543 1080.65788,380.869942 1081.12147,387.572769 C1082.05219,401.042415 1080.64941,411.737645 1078.99472,421.287413 C1077.4741,430.062877 1076.11083,436.017706 1073.64327,440.489339 C1070.95272,445.364833 1067.0979,448.01411 1062.18181,448.363223 C1061.63495,448.402329 1061.08739,448.413706 1060.50666,448.424371 C1055.74017,448.519648 1050.33791,448.627013 1048.42002,465.790431 C1046.26787,485.053504 1048.3424,524.912822 1050.85725,564.088844 C1052.39621,588.062454 1053.70797,610.202332 1055.17637,631.611988 C1055.99984,643.62119 1056.78731,655.10139 1057.51552,666.013482 C1059.52866,696.161628 1061.33788,721.826054 1062.71032,744.468626 C1064.10111,767.432581 1065.4545,787.265185 1065.28091,804.270756 C1065.27103,805.278278 1065.25481,806.275134 1065.23505,807.263458 L1065.23293,807.263458 C1065.15108,811.489076 1065.00219,815.536227 1064.85401,819.464636 C1064.46168,829.819285 1064.09194,839.598715 1065.2668,849.167681 C1066.10932,856.026934 1067.71108,862.758913 1069.40599,869.88551 C1071.1136,877.062591 1072.87978,884.484263 1073.82038,892.114977 M1024.97459,208 C1024.96461,212.616575 1025.07656,216.908731 1025.18567,221.087767 C1025.40244,229.346235 1025.60639,237.146533 1024.8441,246.20609 C1024.09892,255.060751 1022.44314,265.019577 1020.68966,275.5625 C1019.48241,282.824233 1018.23308,290.33426 1017.2369,297.790929 C1015.09693,313.819815 1013.87542,331.173413 1013.65935,349.369365 C1013.52102,361.032104 1013.81552,371.256299 1014.10004,381.145403 C1014.19274,384.348334 1014.28402,387.518539 1014.35889,390.693724 C1014.41166,392.88569 1014.45587,395.079079 1014.5008,397.286697 C1014.72114,408.146925 1014.94861,419.376394 1016.12378,432.279896 C1016.67,438.27312 1017.42801,444.701749 1018.23166,451.508156 C1019.51307,462.368384 1021.05548,474.676405 1022.07234,488.795769 C1023.87002,513.761844 1024.27078,544.24305 1024.43193,570.767192 C1024.48328,579.148029 1024.51037,587.747993 1024.53676,596.429061 C1024.60878,619.734619 1024.88902,643.832729 1025.44879,665.699743 C1025.74259,677.18889 1026.1683,688.004297 1026.57903,698.463269 C1027.22509,714.92756 1027.47253,730.477642 1027.37412,744.661748 C1027.28214,758.019153 1026.66532,770.471598 1026.03067,781.45704 C1025.5743,789.355517 1025.14359,796.815032 1025.01666,803.428637 C1024.98957,804.86149 1024.98101,806.250233 1024.9803,807.619056 L1024.97459,807.619056 C1024.96461,812.235631 1025.07656,816.527075 1025.18567,820.706822 C1025.40244,828.965291 1025.60639,836.765589 1024.8441,845.825146 C1024.09892,854.679807 1022.44314,864.637921 1020.68966,875.181556 C1019.48241,882.444 1018.23308,889.953316 1017.2369,897.409985 M1001.84054,902.704992 L1001.84933,897.728457 C1001.87863,876.687991 1001.62371,859.352562 1001.31605,846.204047 C1001.2721,844.30924 1001.22302,842.469158 1001.17614,840.666035 C1000.88752,829.733578 1000.63554,820.11313 1001.56731,808.074065 L1001.57097,808.074065 C1001.6955,806.465682 1001.83541,804.823184 1002.00535,803.11743 C1002.74813,795.642677 1003.96485,787.05492 1005.25336,777.963255 C1006.80337,767.02227 1008.66325,754.620022 1009.8829,742.016637 C1012.1984,718.069994 1013.05911,692.164576 1013.37336,665.512892 C1013.8268,626.956472 1013.64806,597.068831 1012.97634,571.454103 C1012.49507,553.101619 1011.45782,535.992914 1010.67549,519.446396 C1010.13928,508.121616 1009.63384,497.425832 1009.26758,487.044191 C1008.8896,476.322111 1008.66544,466.0286 1008.44935,456.074108 C1008.14975,442.28025 1007.78056,429.251138 1007.12422,416.518401 C1006.52795,404.959079 1005.62694,393.694711 1004.75451,382.802055 C1003.95752,372.853249 1003.20449,363.45597 1002.70931,354.256274 C1001.75923,336.618074 1001.80831,319.878238 1001.84054,303.689218 L1001.84933,298.712683 C1001.87863,277.672216 1001.62371,260.337499 1001.31605,247.188273 C1001.2721,245.294176 1001.22302,243.453384 1001.17614,241.650971 C1000.88752,230.718514 1000.63554,221.097355 1001.56731,209.059002 M948.603442,870.934947 C948.320126,858.130956 948.448775,846.120107 948.562968,835.522843 C948.653311,827.135859 948.738595,819.214384 948.603442,812.235299 C948.576701,810.804658 948.535504,809.41737 948.490694,808.049981 L948.495753,808.049981 C948.429261,805.895845 948.351204,803.804963 948.273148,801.76454 C947.855401,790.844617 947.494752,781.413614 949.511209,769.974168 C950.81215,762.597802 953.091686,754.42545 955.504207,745.776217 C957.98539,736.87895 960.553301,727.678924 962.303066,718.465395 C965.760676,700.26505 966.353327,682.410817 966.061338,665.827317 C965.991232,661.825359 965.89077,657.897314 965.793922,654.098616 C965.495429,642.384841 965.213558,631.321356 965.90378,621.370119 C966.236965,616.559384 966.80721,611.894342 967.358664,607.38139 C968.317746,599.525299 969.310075,591.402696 969.106984,582.167135 C968.941475,574.653603 968.005521,566.431502 966.921404,556.909529 C965.929076,548.187094 964.803039,538.300531 964.115709,527.298878 C963.395856,515.753538 962.742495,502.724254 962.474356,488.930967 C962.206218,475.144076 962.371727,460.886701 961.622241,445.642163 C960.422484,421.264404 958.004904,395.385644 955.719585,370.357594 C955.111757,363.699035 954.514047,357.153478 953.952475,350.787728 C950.970431,316.951248 949.060939,292.634609 948.603442,271.944679 C948.320126,259.140687 948.448775,247.129128 948.562968,236.531864 C948.653311,228.14488 948.738595,220.223405 948.603442,213.24432 C948.576701,211.813679 948.535504,210.42639 948.490694,209.059002 M904.293212,905.881997 C903.633509,893.269865 903.009738,881.356865 902.270986,870.197763 C901.3188,855.864469 900.280379,842.445097 899.249145,830.604643 C898.628248,823.465378 898.041846,816.722265 897.553177,810.400907 C897.476284,809.400926 897.402265,808.412325 897.328964,807.431547 C896.881976,801.423128 896.519786,795.799481 896.166939,790.337282 C895.609282,781.700891 895.083244,773.544576 894.322215,765.436624 C893.789709,759.759636 893.151566,754.180796 892.476772,748.274082 C891.504465,739.771401 890.499819,730.97854 889.78047,721.485124 C888.90949,709.998148 888.396388,697.409486 887.955868,685.235467 C887.786271,680.552058 887.610206,675.710046 887.416895,671.091359 C887.332815,669.106333 887.245142,667.144778 887.158188,665.191757 C886.514295,650.77525 886.068744,637.158869 887.220709,618.114428 C888.583951,595.610595 892.061403,567.869308 898.248811,557.495397 C900.927866,553.003308 904.083372,551.777869 907.133958,550.59297 C911.196376,549.014053 915.0353,547.524039 916.85056,538.657211 C920.088709,522.836037 917.195503,482.168969 914.631429,449.4925 C914.078802,442.451384 913.526176,435.477835 912.980016,428.589632 C910.729985,400.183351 908.600683,373.352432 907.057783,349.242655 C906.076134,333.920759 905.000344,319.955879 904.293212,306.45045 C903.633509,293.838317 903.009738,281.925318 902.270986,270.766216 C901.3188,256.432921 900.280379,243.01355 899.249145,231.173095 C898.628248,224.03383 898.041846,217.290717 897.553177,210.96936 C897.476284,209.969379 897.402265,208.981489 897.329683,208 M872.433592,896.350983 C871.449621,887.271291 870.518196,878.69579 869.830785,870.469452 C868.889282,859.210151 868.417812,848.858961 867.962176,838.84769 C867.501503,828.740417 867.066742,819.192802 866.190022,810.528409 C866.089969,809.531407 865.980559,808.546494 865.86827,807.56798 L865.870429,807.56798 C865.114636,800.967994 864.133545,794.838776 863.180526,788.885917 C861.88704,780.813894 860.664815,773.189883 860.225016,765.592183 C859.66141,755.836208 860.396329,745.849827 861.174436,735.276764 C861.517782,730.613182 861.872644,725.790307 862.147609,720.680136 C862.864533,707.290292 863.063918,691.799775 863.200681,678.133302 C863.23811,674.394187 863.2741,670.752497 863.320168,667.268677 C863.381351,662.666963 863.45909,658.3433 863.533949,654.237954 C863.723977,643.686936 863.888812,634.574532 863.669272,625.936451 C863.612408,623.655861 863.526031,621.362471 863.443254,619.14375 C863.081913,609.516488 862.707616,599.561397 864.329331,585.393579 C865.21181,577.685654 866.699642,568.639385 868.275291,559.061903 C870.257628,547.00756 872.830203,533.344643 874.246055,519.915687 C876.409063,499.40389 876.522072,478.95396 876.884852,455.274795 C876.946036,451.267584 877.008659,447.17006 877.080639,442.968 C877.156938,438.687716 877.242594,434.297919 877.329691,429.827763 C877.826355,404.408466 878.597983,375.596373 877.391594,350.045517 C876.482483,330.802373 874.153201,312.844238 872.433592,297.00029 C871.449621,287.919887 870.518196,279.343674 869.830785,271.118759 C868.889282,259.859457 868.417812,249.506844 867.962176,239.496285 C867.501503,229.388301 867.066742,219.842108 866.190022,211.177005 M805.693621,209.059002 C805.689534,209.335837 805.684765,209.611249 805.680678,209.889507 C805.626182,213.466303 805.575092,217.085798 805.523321,220.741589 C805.302613,236.347549 805.129589,252.484407 804.587354,268.676775 C804.252205,278.675577 803.790352,288.840908 803.343486,298.671048 C802.89662,308.499053 802.434086,318.662249 802.099617,328.656782 C801.620735,342.943328 801.635721,357.471837 801.405476,371.522112 C801.31147,377.224632 801.218827,382.927864 801.109154,388.631808 L801.009018,393.711626 C800.651389,411.612686 800.340081,430.122214 801.738582,446.572913 C802.518554,455.736941 803.823731,464.237702 805.084629,472.45807 C806.268553,480.171026 807.385718,487.457698 807.849615,494.108147 C808.524001,503.813035 807.810105,512.379269 807.11937,520.664398 C806.844165,523.957242 806.560787,527.361105 806.370051,530.779201 C805.760378,541.708854 805.912967,553.247686 806.274683,567.855901 L806.378226,572.098098 C806.786264,588.972946 806.836672,609.016809 807.117326,628.536892 C807.350977,644.805407 807.624819,666.4626 807.519914,689.724584 C807.422503,711.203863 807.532176,733.920004 807.160242,753.307719 C807.051931,758.963981 806.94362,764.428095 806.838035,769.781903 C806.575773,782.966089 805.902068,795.445734 805.699752,808.482607 C805.693621,808.886118 805.686809,809.283935 805.680678,809.688157 C805.626182,813.264241 805.575092,816.883737 805.523321,820.539527 C805.302613,836.145487 805.129589,852.282345 804.587354,868.474001 C804.252205,878.473516 803.790352,888.638135 803.343486,898.468986 M723.175449,883.642965 C723.398717,878.343888 723.630517,872.864808 723.902136,867.464702 C724.298188,859.607155 724.795919,851.58597 725.278717,843.829453 C726.014648,831.976255 726.346706,819.718227 726.769066,807.644471 L726.770488,807.631664 C726.980246,801.636052 727.111078,795.540833 727.237644,789.645539 C727.532016,775.896256 727.874028,761.67811 729.201547,747.701866 C730.149369,737.716294 731.646117,727.559967 733.093802,717.737323 C734.54291,707.906141 736.042502,697.739853 736.992457,687.736494 C739.061595,665.938278 738.988357,644.18773 738.425922,629.722702 C738.278024,625.918437 738.108085,622.203107 737.941701,618.553944 C737.322381,605.043717 736.814696,592.281964 737.588312,579.333803 C738.069689,571.277755 739.075816,563.115697 740.048524,555.222577 C741.068161,546.948817 742.031626,539.133959 742.337375,531.992159 C742.850038,520.025124 741.516119,508.663556 738.372593,498.22335 C736.058856,490.539405 733.03052,484.158883 729.113378,478.716088 C726.242182,474.728263 722.33144,470.245961 717.480698,470.975224 C716.656598,471.099733 715.818988,471.375074 715.00982,471.640455 C713.355931,472.1826 711.794478,472.69344 710.575749,471.890183 C709.128063,470.935382 708.222904,468.169873 707.805521,463.437843 C706.635143,450.16098 708.857867,418.678857 711.804433,393.368793 C713.206612,381.327765 714.71758,370.634274 716.179487,360.292963 C717.800667,348.824674 719.332256,337.991733 720.394556,327.352314 C721.850063,312.796216 722.577461,298.156876 723.175449,283.998494 C723.398717,278.699418 723.630517,273.219626 723.902136,267.819519 C724.298188,259.962685 724.795919,251.94221 725.278717,244.185694 C726.007538,232.447755 726.339595,220.314235 726.756267,208.355027 C726.763377,208.156525 726.926207,208 727.124588,208 M1098.24265,227.062027 C1099.5022,235.134155 1100.69182,242.758582 1101.20822,250.374468 C1101.89769,260.520679 1101.40673,270.440549 1100.84017,281.926302 C1100.62683,286.241734 1100.40643,290.704501 1100.24042,295.404285 C1099.63925,312.4596 1099.59474,332.488669 1099.79608,349.831536 C1100.00165,367.516051 1100.6784,382.348523 1101.0627,395.180224 L1101.13051,397.406625 C1101.5028,409.542931 1101.82423,420.024383 1099.81303,431.880966 C1098.93848,437.030586 1097.63583,442.376653 1096.1269,448.566874 C1093.92426,457.605579 1091.42705,467.850013 1089.25903,481.413408 C1085.41183,505.492421 1082.9457,537.541778 1082.54657,569.344865 C1082.19971,596.937149 1083.15692,627.744476 1085.86536,666.296519 C1086.80561,679.686244 1087.46682,692.131456 1088.42968,704.166691 C1089.59811,718.764993 1090.98765,732.553306 1091.75695,745.285359 C1092.26769,753.733299 1092.63292,761.704356 1092.98542,769.412771 C1093.5767,782.321343 1094.13407,794.51459 1095.25729,805.257972 C1095.36467,806.280778 1095.47769,807.292196 1095.59567,808.295073 L1095.59425,808.295073 C1096.36143,814.881747 1097.31581,821.003639 1098.24265,826.949724 C1099.5022,835.022563 1100.69182,842.646279 1101.20822,850.262877 C1101.89769,860.408376 1101.40673,870.327534 1100.84017,881.813287 C1100.62683,886.128718 1100.40643,890.591485 1100.24042,895.291982 M1082.38736,208 C1082.97953,216.399126 1083.25625,224.045168 1083.52311,231.460805 C1083.75195,237.836062 1083.96882,243.857889 1084.37158,249.930206 C1084.80814,256.513824 1085.45946,263.064729 1086.1488,270.000355 C1086.92474,277.814934 1087.72815,285.896897 1088.31328,294.881992 C1089.13992,307.570639 1089.7518,321.612561 1090.14471,336.477968 C1090.27427,341.41177 1090.40594,346.367617 1090.55451,351.288619 C1090.73195,357.131242 1090.93473,362.936886 1091.13119,368.551948 C1091.58535,381.54638 1092.01486,393.820439 1092.01205,403.606263 C1092.00782,417.460448 1091.14668,426.624035 1088.94206,436.288257 C1086.49734,446.995703 1082.88306,456.473609 1079.02657,462.291342 C1078.10909,463.675196 1077.14022,464.909713 1076.20373,466.103696 C1072.77183,470.475708 1069.22303,474.997767 1066.82056,488.227581 C1063.63932,505.745494 1062.55708,537.492356 1064.11531,569.106947 C1065.1208,589.484303 1066.93392,610.388605 1068.95688,630.605957 C1070.19966,643.026509 1071.37343,654.758689 1072.27542,666.07486 C1073.67733,683.680952 1074.30752,699.467981 1074.96658,714.735887 C1075.41934,725.222883 1075.84604,735.127465 1076.47552,744.544926 C1077.36131,757.813141 1078.79702,770.365251 1079.95601,781.439638 C1080.80519,789.553602 1081.60719,797.216711 1082.16415,804.325141 C1082.24372,805.344186 1082.31765,806.351143 1082.38806,807.350277 L1082.38736,807.350277 C1082.97953,815.749403 1083.25625,823.395445 1083.52311,830.81037 C1083.75195,837.186339 1083.96882,843.208166 1084.37158,849.281194 C1084.80814,855.864812 1085.45946,862.415006 1086.1488,869.350632 C1086.92474,877.165922 1087.72815,885.246463 1088.31328,894.23298 M965.961403,870.934947 C965.90345,857.131825 966.301534,844.323132 966.777579,833.022097 C967.092872,825.535055 967.390228,818.463011 967.468189,812.146931 C967.485437,810.710455 967.488196,809.316689 967.484057,807.943567 L967.490266,807.943567 C967.487506,804.821474 967.444731,801.847443 967.403336,798.945307 C967.258453,788.942652 967.133577,780.303867 968.627254,769.797948 C969.61108,762.878236 971.291035,755.263064 973.069649,747.20015 C975.151827,737.760554 977.304377,728.000635 978.609706,718.200141 C980.831938,701.510543 980.705683,685.336311 980.420746,669.693817 C980.395219,668.284391 980.369692,666.884218 980.346234,665.495435 C980.051639,647.917472 979.877779,633.348419 980.332436,620.955436 C980.500776,616.359852 980.72845,611.900941 980.949224,607.587243 C981.360417,599.529312 981.786097,591.196614 981.839221,581.711461 C981.891655,572.425621 981.59292,561.835706 981.24727,549.572987 C981.054782,542.747948 980.836767,535.011765 980.661528,526.760928 C980.567699,522.335472 980.484218,517.714975 980.397978,512.914384 C980.03577,492.772404 979.932972,469.942549 978.448955,444.954421 C977.101541,422.29327 974.615069,398.201338 972.477007,374.901674 C971.68084,366.223026 970.928137,358.024864 970.224419,349.953409 C967.186701,315.13489 966.048333,291.519885 965.961403,270.992092 C965.90345,257.188258 966.301534,244.379565 966.777579,233.07853 C967.092872,225.591488 967.390228,218.519444 967.468189,212.203364 C967.485437,210.766888 967.488196,209.373123 967.484057,208 M1167.24403,479.104387 C1166.40237,466.507042 1165.70337,454.609273 1165.76431,443.038494 C1165.81378,433.739555 1166.42746,424.526104 1167.02107,415.614709 C1167.6412,406.322182 1168.28141,396.712636 1168.28141,386.996944 C1168.28141,373.703586 1166.71064,359.624451 1165.54493,346.009089 C1165.03807,340.087631 1164.51329,333.965278 1164.08887,327.930549 C1162.66938,307.78819 1162.17184,287.234065 1161.88005,267.908115 C1161.83059,264.661002 1161.7847,261.414601 1161.7381,258.172475 C1161.50367,241.777333 1161.45707,224.823671 1160.86633,209.059002 M1178.25665,900.586989 C1176.96344,889.674981 1175.62616,878.390964 1174.7816,867.296153 C1173.91681,855.945274 1173.54112,844.513308 1173.17772,833.456195 C1172.89307,824.821048 1172.62504,816.664605 1172.14315,808.552262 C1172.12004,808.157492 1172.08897,807.769124 1172.06441,807.374354 L1172.0673,807.374354 C1171.67933,801.122764 1171.17216,794.913852 1170.67799,788.898413 C1169.71712,777.223894 1168.42896,765.15176 1168.29819,752.317827 C1168.0699,729.987367 1170.17371,708.792848 1174.39147,694.16858 C1176.23158,687.791091 1178.5507,682.2572 1180.79395,676.905401 C1184.22711,668.716238 1187.77658,660.247535 1189.62392,648.664062 C1192.72402,629.232137 1191.6172,600.733309 1189.9447,575.546991 C1189.35733,566.707703 1188.73312,558.073979 1188.12914,549.724774 C1186.95441,533.468079 1185.54705,518.113309 1184.87805,503.614941 C1183.86371,481.642264 1184.34415,461.836197 1184.34415,442.683101 C1184.34415,423.67013 1183.87671,405.711302 1183.57183,386.723938 C1183.29368,369.34126 1183.09356,348.739963 1181.17469,327.747453 C1180.36264,318.861218 1179.29267,309.829168 1178.25665,301.09444 C1176.96344,290.181721 1175.62616,278.898415 1174.7816,267.803604 C1173.91681,256.452725 1173.54112,245.020047 1173.17772,233.963646 C1172.89307,225.327788 1172.62504,217.170633 1172.14315,209.059002 M1239.20745,795.246033 C1239.49781,778.067909 1238.42146,758.905537 1236.42976,743.985693 C1234.62928,730.499904 1232.15459,720.957764 1225.92991,718.225962 C1224.65179,717.665119 1223.20424,717.379728 1221.62803,717.379728 C1215.39421,717.379728 1208.68935,721.603798 1204.54566,728.140104 C1199.38326,736.285106 1197.04145,749.498283 1198.257,765.343873 C1198.84685,773.022452 1200.18683,780.533489 1201.60697,788.4861 C1202.71706,794.701519 1203.85809,801.121396 1204.62159,807.6719 C1204.65603,807.97362 1204.6954,808.273209 1204.72845,808.574219 C1205.49054,815.44845 1205.81745,822.43343 1206.16334,829.828748 C1206.5704,838.531044 1206.99222,847.529379 1208.16981,856.989877 C1210.34219,874.444163 1214.85147,892.113557 1219.34387,892.114977 C1219.44862,892.114977 1219.55267,892.105038 1219.65742,892.08374 C1223.63942,891.295721 1229.13505,875.931462 1233.69565,850.986018 M1214.19709,779.938904 L1214.15303,779.751472 C1211.98991,770.70396 1209.7536,761.3474 1211.02276,755.099201 C1212.08798,749.858984 1215.58066,747.03177 1218.32648,747.03177 C1219.14724,747.03177 1219.89766,747.26141 1220.55782,747.715681 C1223.65753,749.847537 1224.63676,757.194572 1225.44828,770.894968 C1226.05586,781.156494 1226.63714,795.395577 1226.52984,807.719567 L1226.54263,807.738882 C1226.50568,812.018333 1226.39269,816.065999 1226.18022,819.631493 C1225.47742,831.442549 1223.76057,836.859467 1223.02934,837.046899 C1222.99879,837.027583 1222.8524,836.908829 1222.68611,836.373719 C1222.07143,834.386371 1221.84972,828.956576 1221.59177,822.668315 C1221.40629,818.135616 1221.19595,812.9977 1220.79872,808.36127 C1220.78095,808.151661 1220.77171,807.947775 1220.75324,807.738882 M629.052473,795.246033 C629.343531,778.067909 628.267178,758.905537 626.275467,743.985693 C624.47428,730.499904 621.99958,720.957764 615.774868,718.225962 C614.496743,717.665119 613.049184,717.379728 611.473673,717.379728 C605.239118,717.379728 598.53423,721.603798 594.391218,728.140104 C589.228096,736.285106 586.886271,749.498283 588.102529,765.343873 C588.691677,773.022452 590.032373,780.533489 591.452513,788.4861 C592.561909,794.701519 593.703645,801.121396 594.466443,807.6719 C594.501595,807.97362 594.540262,808.273209 594.574008,808.574219 C595.3354,815.44845 595.663017,822.43343 596.008209,829.828748 C596.415972,838.531044 596.837093,847.529379 598.015387,856.989877 C600.187076,874.444163 604.696371,892.113557 609.188794,892.114977 C609.293547,892.114977 609.397597,892.105038 609.50235,892.08374 C613.484366,891.295721 618.980729,875.931462 623.541346,850.986018 M610.597776,807.738882 C610.616252,807.947775 610.62549,808.150946 610.643966,808.36127 C611.040494,812.9977 611.250839,818.134901 611.437022,822.668315 C611.694268,828.95586 611.916694,834.386371 612.532094,836.373003 C612.697669,836.908113 612.844058,837.026868 612.874615,837.046899 C613.605136,836.859467 615.322004,831.442549 616.026232,819.631493 C616.237998,816.065999 616.350987,812.017618 616.38794,807.738882 L616.375148,807.719567 C616.481742,795.395577 615.901162,781.156494 615.293579,770.894968 C614.482757,757.194572 613.502806,749.847537 610.403065,747.715681 C609.742895,747.26141 608.992476,747.03177 608.171705,747.03177 C605.425854,747.03177 601.933848,749.858984 600.868623,755.099201 C599.598027,761.346684 601.835071,770.703244 603.9975,779.751472 L604.041559,779.938904 M541.805362,887.878971 C541.784367,881.219437 541.763372,874.559902 541.731541,867.901079 C541.623858,845.48245 541.487729,826.903231 540.76713,809.095596 C540.750876,808.699127 540.730558,808.307641 540.714304,807.911172 L540.715659,807.911172 C540.427825,801.036676 540.064816,794.201329 539.709258,787.580231 C539.110564,776.385152 538.489521,764.810687 538.198301,752.310892 C537.676815,729.946358 538.190174,707.237317 539.663881,691.563637 C540.38719,683.869156 541.375982,677.263717 542.331589,670.876088 C543.512045,662.992981 544.731781,654.841529 545.467958,644.562527 C546.783864,626.186169 546.535312,601.144583 546.236642,574.942062 C545.981994,552.662943 545.425291,526.966507 544.329492,503.939295 C543.929234,495.513802 543.428743,487.367332 542.946537,479.489208 C542.164307,466.727473 541.698356,454.673971 541.463348,442.958572 C541.211409,430.386885 541.224954,418.525568 541.567646,405.969541 C541.736282,399.789043 541.911691,393.398566 542.008539,386.978906 C542.229324,372.261875 542.083037,356.623785 541.90695,341.499609 C541.854124,337.000366 541.801976,332.489022 541.759309,327.979103 C541.631985,314.642239 541.847352,301.081872 541.805362,287.967799 C541.784367,281.308264 541.763372,274.649442 541.731541,267.989195 C541.623858,245.571989 541.487729,226.992059 540.76713,209.185135 C540.750876,208.787955 540.730558,208.39718 540.714304,208 M698.749449,209.059002 C698.502573,218.417615 698.57452,227.875168 698.649993,237.887917 C698.724056,247.682147 698.800235,257.809494 698.551243,267.849291 C698.106867,285.812021 696.327245,304.884432 693.593273,327.874535 C692.702404,335.374666 691.709964,343.000783 690.750675,350.375638 C689.153742,362.661133 687.717631,375.365871 686.479725,387.857784 C685.189623,400.882828 684.273362,413.846658 683.435395,426.383414 C682.981849,433.164637 682.554401,439.569323 682.07123,445.841615 C681.700916,450.645486 681.303094,455.306998 680.917262,459.814764 C679.878268,471.962882 678.897113,483.437648 678.886533,493.35217 C678.878774,500.156169 679.319624,506.350165 679.745661,512.341301 C680.171698,518.343114 680.575163,524.011809 680.525788,529.985862 C680.489109,534.379029 680.207671,538.858323 679.909304,543.60098 C679.385222,551.925363 678.843506,560.53375 679.480446,570.316591 C680.510975,586.141816 684.96814,605.138778 688.889232,621.702129 C689.252492,623.23746 689.617868,624.772791 689.98395,626.310969 C693.883176,642.683561 697.706223,659.613485 699.883667,679.938646 C702.703693,706.263485 702.36512,735.497409 701.820583,750.580237 C701.438984,761.197296 700.828143,770.74667 700.237757,779.982144 C699.630443,789.475998 699.059102,798.468752 698.786833,807.758322 L698.792476,807.758322 C698.779779,808.163331 698.760735,808.562645 698.749449,808.967653 C698.502573,818.326267 698.57452,827.78382 698.649993,837.796569 C698.724056,847.590798 698.800235,857.718146 698.551243,867.757943" id="Combined-Shape"></path>
        </g>
    </g>
</svg>