<svg xmlns="http://www.w3.org/2000/svg" width="20.57" height="20.571" viewBox="0 0 20.57 20.571">
  <path id="Path_11" data-name="Path 11" d="M1148.78,12.428a10.285,10.285,0,1,0-14.41,9.429,8.782,8.782,0,0,1,.18-2.371s.2-.83,1.32-5.6a4.344,4.344,0,0,1-.33-1.634c0-1.527.88-2.665,1.98-2.665a1.384,1.384,0,0,1,1.39,1.554,21.927,21.927,0,0,1-.91,3.643,1.594,1.594,0,0,0,1.62,1.982c1.96,0,3.27-2.5,3.27-5.464,0-2.263-1.53-3.951-4.29-3.951a4.87,4.87,0,0,0-5.06,4.929,3.013,3.013,0,0,0,.68,2.022.5.5,0,0,1,.15.576c-.05.188-.16.643-.21.817a.354.354,0,0,1-.51.268c-1.43-.589-2.1-2.17-2.1-3.937,0-2.92,2.46-6.429,7.34-6.429,3.93,0,6.52,2.853,6.52,5.893,0,4.045-2.25,7.058-5.56,7.058a2.934,2.934,0,0,1-2.51-1.286c-.6,2.371-.72,2.826-.72,2.826a8.338,8.338,0,0,1-1.04,2.2,10.021,10.021,0,0,0,2.92.428A10.283,10.283,0,0,0,1148.78,12.428Z" transform="translate(-1128.21 -2.143)" fill="#c0d6e5"/>
</svg>
