<svg xmlns="http://www.w3.org/2000/svg" width="25.728" height="14.676" viewBox="0 0 25.728 14.676">
  <path id="Path_12" data-name="Path 12" d="M1198.82,7.393s-.19-.536-1.35-.388l-3.86.027a.869.869,0,0,0-.51.08.767.767,0,0,0-.33.415,24.242,24.242,0,0,1-1.44,3.013c-1.71,2.92-2.41,3.08-2.69,2.893-.66-.415-.48-1.687-.48-2.6,0-2.839.43-4.018-.85-4.326a7.013,7.013,0,0,0-1.8-.174,8.348,8.348,0,0,0-3.2.321c-.45.214-.78.7-.58.723a1.8,1.8,0,0,1,1.14.576,4.061,4.061,0,0,1,.39,1.754c.14,3.335-.54,3.75-.54,3.75-.52.281-1.43-.187-2.77-2.946a26.251,26.251,0,0,1-1.38-2.866,1.013,1.013,0,0,0-.32-.429,1.389,1.389,0,0,0-.59-.241L1173.99,7a1,1,0,0,0-.77.254s-.2.214-.01.656a35.569,35.569,0,0,0,6.14,10.112s2.98,3.121,6.37,2.906h1.54a1.152,1.152,0,0,0,.71-.295,1.05,1.05,0,0,0,.2-.683c-.03-2.062.94-2.371.94-2.371.94-.295,2.14,2,3.43,2.879a2.859,2.859,0,0,0,1.71.522l3.43-.054c1.81-.013.95-1.513.95-1.513a11.246,11.246,0,0,0-2.56-2.96c-2.14-2-1.86-1.674.74-5.129C1198.39,9.228,1199.02,7.942,1198.82,7.393Z" transform="translate(-1173.128 -6.332)" fill="#c0d6e5"/>
</svg>
