<svg xmlns="http://www.w3.org/2000/svg" width="19.85" height="24" viewBox="0 0 19.85 24">
  <path id="Path_10" data-name="Path 10" d="M1096.22,17.089c0-.589-.18-.9-.53-.9a.852.852,0,0,0-.6.295v4.031a.853.853,0,0,0,.6.295c.35,0,.53-.295.53-.9Zm4.52.013c0-.6-.2-.911-.6-.911s-.6.308-.6.911v.616h1.2Zm-12.94-2.92V21.8h-1.33V14.183h-1.41V12.924h4.18v1.259Zm3.86,7.621V21.08a1.947,1.947,0,0,1-1.36.817.738.738,0,0,1-.78-.5,3.135,3.135,0,0,1-.11-.978V15.187h1.19v4.875a2.073,2.073,0,0,0,.02.469c.02.188.12.281.28.281.24,0,.49-.187.76-.562V15.187h1.19V21.8Zm5.75-1.982a4.9,4.9,0,0,1-.12,1.339.95.95,0,0,1-.95.737,1.651,1.651,0,0,1-1.25-.737V21.8h-1.19V12.924h1.19V15.83a1.624,1.624,0,0,1,1.25-.723.948.948,0,0,1,.95.75,4.73,4.73,0,0,1,.12,1.326Zm4.52-.134a6.987,6.987,0,0,1-.02.777,1.655,1.655,0,0,1-1.73,1.433,1.711,1.711,0,0,1-1.45-.683,2.548,2.548,0,0,1-.39-1.554V17.344a2.581,2.581,0,0,1,.38-1.553,1.7,1.7,0,0,1,1.43-.683,1.68,1.68,0,0,1,1.42.683,2.666,2.666,0,0,1,.36,1.553v1.38h-2.39v1.165c0,.616.2.924.61.924a.518.518,0,0,0,.54-.482,7.554,7.554,0,0,0,.03-.817h1.21ZM1093.79,7.46c0,.616-.17.937-.57.937s-.58-.321-.58-.937V4.647c0-.616.19-.924.58-.924s.57.308.57.924Zm9.63,10.058a20.923,20.923,0,0,0-.35-4.687,2.516,2.516,0,0,0-2.14-1.955,103.029,103.029,0,0,0-14.85,0,2.539,2.539,0,0,0-2.16,1.955,22.169,22.169,0,0,0-.35,4.687,20.983,20.983,0,0,0,.35,4.688,2.485,2.485,0,0,0,2.14,1.942,65.7,65.7,0,0,0,7.44.281,65.524,65.524,0,0,0,7.43-.281,2.5,2.5,0,0,0,2.14-1.942A21.591,21.591,0,0,0,1103.42,17.518ZM1090.05.428l-.91,3.522-.95-3.522h-1.42c.28.83.58,1.674.87,2.5a21.115,21.115,0,0,1,.82,2.839V9.4h1.34V5.772l1.62-5.344Zm4.96,4.46a2.633,2.633,0,0,0-.37-1.567,1.668,1.668,0,0,0-1.42-.683,1.637,1.637,0,0,0-1.41.683,2.557,2.557,0,0,0-.38,1.567V7.232a2.629,2.629,0,0,0,.38,1.58,1.637,1.637,0,0,0,1.41.683,1.668,1.668,0,0,0,1.42-.683,2.68,2.68,0,0,0,.37-1.58Zm4.49-2.17h-1.22v5.1c-.27.388-.52.576-.77.576-.16,0-.25-.107-.28-.295a3.965,3.965,0,0,1-.01-.469V2.719H1096V8a3.281,3.281,0,0,0,.11,1,.758.758,0,0,0,.79.5,1.922,1.922,0,0,0,1.38-.83V9.4h1.22Z" transform="translate(-1083.57 -0.429)" fill="#c0d6e5"/>
</svg>
